<?xml version="1.0" encoding="UTF-8" standalone="no"?>
<!DOCTYPE svg PUBLIC "-//W3C//DTD SVG 1.1//EN"
 "http://www.w3.org/Graphics/SVG/1.1/DTD/svg11.dtd">
<!-- Generated by graphviz version 12.2.1 (20241206.2353)
 -->
<!-- Pages: 1 -->
<svg width="461pt" height="481pt"
 viewBox="0.00 0.00 460.62 481.00" xmlns="http://www.w3.org/2000/svg" xmlns:xlink="http://www.w3.org/1999/xlink">
<g id="graph0" class="graph" transform="scale(1 1) rotate(0) translate(4 477)">
<polygon fill="white" stroke="none" points="-4,4 -4,-477 456.62,-477 456.62,4 -4,4"/>
<!-- 4440817168 -->
<g id="node1" class="node">
<title>4440817168</title>
<polygon fill="none" stroke="black" points="77,-440.5 77,-469 191.75,-469 191.75,-440.5 77,-440.5"/>
<text text-anchor="start" x="83" y="-449.7" font-family="Times,serif" font-size="14.00">value = 1299.0000</text>
<polygon fill="none" stroke="black" points="77,-412 77,-440.5 191.75,-440.5 191.75,-412 77,-412"/>
<text text-anchor="start" x="95.75" y="-421.2" font-family="Times,serif" font-size="14.00">grad = 1.0000</text>
<polygon fill="#c2ebff" stroke="none" points="77,-385.75 77,-412 191.75,-412 191.75,-385.75 77,-385.75"/>
<polygon fill="none" stroke="black" points="77,-385.75 77,-412 191.75,-412 191.75,-385.75 77,-385.75"/>
<text text-anchor="start" x="130.62" y="-394.6" font-family="Courier,monospace" font-size="12.00" fill="#004261">+</text>
</g>
<!-- 4440817040 -->
<g id="node2" class="node">
<title>4440817040</title>
<polygon fill="none" stroke="black" points="8,-313.25 8,-341.75 122.75,-341.75 122.75,-313.25 8,-313.25"/>
<text text-anchor="start" x="14" y="-322.45" font-family="Times,serif" font-size="14.00">value = 1296.0000</text>
<polygon fill="none" stroke="black" points="8,-284.75 8,-313.25 122.75,-313.25 122.75,-284.75 8,-284.75"/>
<text text-anchor="start" x="26.75" y="-293.95" font-family="Times,serif" font-size="14.00">grad = 1.0000</text>
<polygon fill="#c2ebff" stroke="none" points="8,-258.5 8,-284.75 122.75,-284.75 122.75,-258.5 8,-258.5"/>
<polygon fill="none" stroke="black" points="8,-258.5 8,-284.75 122.75,-284.75 122.75,-258.5 8,-258.5"/>
<text text-anchor="start" x="50.38" y="-267.35" font-family="Courier,monospace" font-size="12.00" fill="#004261">ReLU</text>
</g>
<!-- 4440817040&#45;&gt;4440817168 -->
<g id="edge1" class="edge">
<title>4440817040&#45;&gt;4440817168</title>
<path fill="none" stroke="black" d="M89.9,-345.64C94.62,-354.22 99.63,-363.3 104.5,-372.15"/>
<polygon fill="black" stroke="black" points="101.31,-373.61 109.2,-380.68 107.44,-370.23 101.31,-373.61"/>
</g>
<!-- 4440809936 -->
<g id="node3" class="node">
<title>4440809936</title>
<polygon fill="none" stroke="black" points="8,-186 8,-214.5 122.75,-214.5 122.75,-186 8,-186"/>
<text text-anchor="start" x="14" y="-195.2" font-family="Times,serif" font-size="14.00">value = 1296.0000</text>
<polygon fill="none" stroke="black" points="8,-157.5 8,-186 122.75,-186 122.75,-157.5 8,-157.5"/>
<text text-anchor="start" x="26.75" y="-166.7" font-family="Times,serif" font-size="14.00">grad = 1.0000</text>
<polygon fill="#c2ebff" stroke="none" points="8,-131.25 8,-157.5 122.75,-157.5 122.75,-131.25 8,-131.25"/>
<polygon fill="none" stroke="black" points="8,-131.25 8,-157.5 122.75,-157.5 122.75,-131.25 8,-131.25"/>
<text text-anchor="start" x="57.88" y="-140.1" font-family="Courier,monospace" font-size="12.00" fill="#004261">^4</text>
</g>
<!-- 4440809936&#45;&gt;4440817040 -->
<g id="edge2" class="edge">
<title>4440809936&#45;&gt;4440817040</title>
<path fill="none" stroke="black" d="M65.38,-218.39C65.38,-226.51 65.38,-235.07 65.38,-243.47"/>
<polygon fill="black" stroke="black" points="61.88,-243.24 65.38,-253.24 68.88,-243.24 61.88,-243.24"/>
</g>
<!-- 4440812176 -->
<g id="node4" class="node">
<title>4440812176</title>
<polygon fill="none" stroke="black" points="11.75,-58.75 11.75,-87.25 119,-87.25 119,-58.75 11.75,-58.75"/>
<text text-anchor="start" x="21.88" y="-67.95" font-family="Times,serif" font-size="14.00">value = &#45;6.0000</text>
<polygon fill="none" stroke="black" points="11.75,-30.25 11.75,-58.75 119,-58.75 119,-30.25 11.75,-30.25"/>
<text text-anchor="start" x="17.75" y="-39.45" font-family="Times,serif" font-size="14.00">grad = &#45;864.0000</text>
<polygon fill="#c9c9c9" stroke="none" points="11.75,-4 11.75,-30.25 119,-30.25 119,-4 11.75,-4"/>
<polygon fill="none" stroke="black" points="11.75,-4 11.75,-30.25 119,-30.25 119,-4 11.75,-4"/>
<text text-anchor="start" x="46.62" y="-12.85" font-family="Courier,monospace" font-size="12.00">input</text>
</g>
<!-- 4440812176&#45;&gt;4440809936 -->
<g id="edge3" class="edge">
<title>4440812176&#45;&gt;4440809936</title>
<path fill="none" stroke="black" d="M65.38,-91.14C65.38,-99.26 65.38,-107.82 65.38,-116.22"/>
<polygon fill="black" stroke="black" points="61.88,-115.99 65.38,-125.99 68.88,-115.99 61.88,-115.99"/>
</g>
<!-- 4440814800 -->
<g id="node5" class="node">
<title>4440814800</title>
<polygon fill="none" stroke="black" points="157.12,-313.25 157.12,-341.75 251.62,-341.75 251.62,-313.25 157.12,-313.25"/>
<text text-anchor="start" x="163.12" y="-322.45" font-family="Times,serif" font-size="14.00">value = 3.0000</text>
<polygon fill="none" stroke="black" points="157.12,-284.75 157.12,-313.25 251.62,-313.25 251.62,-284.75 157.12,-284.75"/>
<text text-anchor="start" x="165.75" y="-293.95" font-family="Times,serif" font-size="14.00">grad = 1.0000</text>
<polygon fill="#c2ebff" stroke="none" points="157.12,-258.5 157.12,-284.75 251.62,-284.75 251.62,-258.5 157.12,-258.5"/>
<polygon fill="none" stroke="black" points="157.12,-258.5 157.12,-284.75 251.62,-284.75 251.62,-258.5 157.12,-258.5"/>
<text text-anchor="start" x="200.62" y="-267.35" font-family="Courier,monospace" font-size="12.00" fill="#004261">*</text>
</g>
<!-- 4440814800&#45;&gt;4440817168 -->
<g id="edge4" class="edge">
<title>4440814800&#45;&gt;4440817168</title>
<path fill="none" stroke="black" d="M179.5,-345.64C174.7,-354.22 169.63,-363.3 164.68,-372.15"/>
<polygon fill="black" stroke="black" points="161.73,-370.25 159.91,-380.69 167.84,-373.66 161.73,-370.25"/>
</g>
<!-- 4440563216 -->
<g id="node6" class="node">
<title>4440563216</title>
<polygon fill="none" stroke="black" points="157.12,-186 157.12,-214.5 251.62,-214.5 251.62,-186 157.12,-186"/>
<text text-anchor="start" x="163.12" y="-195.2" font-family="Times,serif" font-size="14.00">value = 0.5000</text>
<polygon fill="none" stroke="black" points="157.12,-157.5 157.12,-186 251.62,-186 251.62,-157.5 157.12,-157.5"/>
<text text-anchor="start" x="165.75" y="-166.7" font-family="Times,serif" font-size="14.00">grad = 6.0000</text>
<polygon fill="#c9c9c9" stroke="none" points="157.12,-131.25 157.12,-157.5 251.62,-157.5 251.62,-131.25 157.12,-131.25"/>
<polygon fill="none" stroke="black" points="157.12,-131.25 157.12,-157.5 251.62,-157.5 251.62,-131.25 157.12,-131.25"/>
<text text-anchor="start" x="185.62" y="-140.1" font-family="Courier,monospace" font-size="12.00">input</text>
</g>
<!-- 4440563216&#45;&gt;4440814800 -->
<g id="edge5" class="edge">
<title>4440563216&#45;&gt;4440814800</title>
<path fill="none" stroke="black" d="M204.38,-218.39C204.38,-226.51 204.38,-235.07 204.38,-243.47"/>
<polygon fill="black" stroke="black" points="200.88,-243.24 204.38,-253.24 207.88,-243.24 200.88,-243.24"/>
</g>
<!-- 4440812880 -->
<g id="node7" class="node">
<title>4440812880</title>
<polygon fill="none" stroke="black" points="286.12,-186 286.12,-214.5 380.62,-214.5 380.62,-186 286.12,-186"/>
<text text-anchor="start" x="292.12" y="-195.2" font-family="Times,serif" font-size="14.00">value = 6.0000</text>
<polygon fill="none" stroke="black" points="286.12,-157.5 286.12,-186 380.62,-186 380.62,-157.5 286.12,-157.5"/>
<text text-anchor="start" x="294.75" y="-166.7" font-family="Times,serif" font-size="14.00">grad = 0.5000</text>
<polygon fill="#c2ebff" stroke="none" points="286.12,-131.25 286.12,-157.5 380.62,-157.5 380.62,-131.25 286.12,-131.25"/>
<polygon fill="none" stroke="black" points="286.12,-131.25 286.12,-157.5 380.62,-157.5 380.62,-131.25 286.12,-131.25"/>
<text text-anchor="start" x="329.62" y="-140.1" font-family="Courier,monospace" font-size="12.00" fill="#004261">*</text>
</g>
<!-- 4440812880&#45;&gt;4440814800 -->
<g id="edge6" class="edge">
<title>4440812880&#45;&gt;4440814800</title>
<path fill="none" stroke="black" d="M287.53,-218.39C278.03,-227.61 267.93,-237.42 258.17,-246.89"/>
<polygon fill="black" stroke="black" points="255.89,-244.23 251.16,-253.7 260.77,-249.25 255.89,-244.23"/>
</g>
<!-- 4440814736 -->
<g id="node8" class="node">
<title>4440814736</title>
<polygon fill="none" stroke="black" points="221.12,-58.75 221.12,-87.25 315.62,-87.25 315.62,-58.75 221.12,-58.75"/>
<text text-anchor="start" x="227.12" y="-67.95" font-family="Times,serif" font-size="14.00">value = 2.0000</text>
<polygon fill="none" stroke="black" points="221.12,-30.25 221.12,-58.75 315.62,-58.75 315.62,-30.25 221.12,-30.25"/>
<text text-anchor="start" x="229.75" y="-39.45" font-family="Times,serif" font-size="14.00">grad = 1.5000</text>
<polygon fill="#c9c9c9" stroke="none" points="221.12,-4 221.12,-30.25 315.62,-30.25 315.62,-4 221.12,-4"/>
<polygon fill="none" stroke="black" points="221.12,-4 221.12,-30.25 315.62,-30.25 315.62,-4 221.12,-4"/>
<text text-anchor="start" x="249.62" y="-12.85" font-family="Courier,monospace" font-size="12.00">input</text>
</g>
<!-- 4440814736&#45;&gt;4440812880 -->
<g id="edge7" class="edge">
<title>4440814736&#45;&gt;4440812880</title>
<path fill="none" stroke="black" d="M291.47,-91.14C295.88,-99.63 300.54,-108.6 305.09,-117.36"/>
<polygon fill="black" stroke="black" points="301.94,-118.9 309.65,-126.16 308.15,-115.68 301.94,-118.9"/>
</g>
<!-- 4440546000 -->
<g id="node9" class="node">
<title>4440546000</title>
<polygon fill="none" stroke="black" points="350.12,-58.75 350.12,-87.25 444.62,-87.25 444.62,-58.75 350.12,-58.75"/>
<text text-anchor="start" x="356.12" y="-67.95" font-family="Times,serif" font-size="14.00">value = 3.0000</text>
<polygon fill="none" stroke="black" points="350.12,-30.25 350.12,-58.75 444.62,-58.75 444.62,-30.25 350.12,-30.25"/>
<text text-anchor="start" x="358.75" y="-39.45" font-family="Times,serif" font-size="14.00">grad = 1.0000</text>
<polygon fill="#c9c9c9" stroke="none" points="350.12,-4 350.12,-30.25 444.62,-30.25 444.62,-4 350.12,-4"/>
<polygon fill="none" stroke="black" points="350.12,-4 350.12,-30.25 444.62,-30.25 444.62,-4 350.12,-4"/>
<text text-anchor="start" x="378.62" y="-12.85" font-family="Courier,monospace" font-size="12.00">input</text>
</g>
<!-- 4440546000&#45;&gt;4440812880 -->
<g id="edge8" class="edge">
<title>4440546000&#45;&gt;4440812880</title>
<path fill="none" stroke="black" d="M374.63,-91.14C370.29,-99.63 365.71,-108.6 361.23,-117.36"/>
<polygon fill="black" stroke="black" points="358.17,-115.66 356.73,-126.16 364.4,-118.85 358.17,-115.66"/>
</g>
</g>
</svg>
