<?xml version="1.0" encoding="UTF-8" standalone="no"?>
<!DOCTYPE svg PUBLIC "-//W3C//DTD SVG 1.1//EN"
 "http://www.w3.org/Graphics/SVG/1.1/DTD/svg11.dtd">
<!-- Generated by graphviz version 12.2.1 (20241206.2353)
 -->
<!-- Pages: 1 -->
<svg width="472pt" height="481pt"
 viewBox="0.00 0.00 472.00 481.00" xmlns="http://www.w3.org/2000/svg" xmlns:xlink="http://www.w3.org/1999/xlink">
<g id="graph0" class="graph" transform="scale(1 1) rotate(0) translate(4 477)">
<polygon fill="white" stroke="none" points="-4,4 -4,-477 468,-477 468,4 -4,4"/>
<!-- 4424959440 -->
<g id="node1" class="node">
<title>4424959440</title>
<polygon fill="none" stroke="black" points="80,-440.5 80,-469 201.5,-469 201.5,-440.5 80,-440.5"/>
<text text-anchor="start" x="86" y="-449.7" font-family="Times,serif" font-size="14.00">value = 75423.8906</text>
<polygon fill="none" stroke="black" points="80,-412 80,-440.5 201.5,-440.5 201.5,-412 80,-412"/>
<text text-anchor="start" x="102.12" y="-421.2" font-family="Times,serif" font-size="14.00">grad = 1.0000</text>
<polygon fill="#c2ebff" stroke="none" points="80,-385.75 80,-412 201.5,-412 201.5,-385.75 80,-385.75"/>
<polygon fill="none" stroke="black" points="80,-385.75 80,-412 201.5,-412 201.5,-385.75 80,-385.75"/>
<text text-anchor="start" x="137" y="-394.6" font-family="Courier,monospace" font-size="12.00" fill="#004261">+</text>
</g>
<!-- 4424963664 -->
<g id="node2" class="node">
<title>4424963664</title>
<polygon fill="none" stroke="black" points="9,-313.25 9,-341.75 130.5,-341.75 130.5,-313.25 9,-313.25"/>
<text text-anchor="start" x="15" y="-322.45" font-family="Times,serif" font-size="14.00">value = 75418.8906</text>
<polygon fill="none" stroke="black" points="9,-284.75 9,-313.25 130.5,-313.25 130.5,-284.75 9,-284.75"/>
<text text-anchor="start" x="31.12" y="-293.95" font-family="Times,serif" font-size="14.00">grad = 1.0000</text>
<polygon fill="#c2ebff" stroke="none" points="9,-258.5 9,-284.75 130.5,-284.75 130.5,-258.5 9,-258.5"/>
<polygon fill="none" stroke="black" points="9,-258.5 9,-284.75 130.5,-284.75 130.5,-258.5 9,-258.5"/>
<text text-anchor="start" x="54.75" y="-267.35" font-family="Courier,monospace" font-size="12.00" fill="#004261">ReLU</text>
</g>
<!-- 4424963664&#45;&gt;4424959440 -->
<g id="edge1" class="edge">
<title>4424963664&#45;&gt;4424959440</title>
<path fill="none" stroke="black" d="M94.98,-345.64C99.85,-354.22 104.99,-363.3 110.01,-372.15"/>
<polygon fill="black" stroke="black" points="106.88,-373.72 114.85,-380.69 112.97,-370.26 106.88,-373.72"/>
</g>
<!-- 4413695760 -->
<g id="node3" class="node">
<title>4413695760</title>
<polygon fill="none" stroke="black" points="8,-186 8,-214.5 129.5,-214.5 129.5,-186 8,-186"/>
<text text-anchor="start" x="14" y="-195.2" font-family="Times,serif" font-size="14.00">value = 75418.8906</text>
<polygon fill="none" stroke="black" points="8,-157.5 8,-186 129.5,-186 129.5,-157.5 8,-157.5"/>
<text text-anchor="start" x="30.12" y="-166.7" font-family="Times,serif" font-size="14.00">grad = 1.0000</text>
<polygon fill="#c2ebff" stroke="none" points="8,-131.25 8,-157.5 129.5,-157.5 129.5,-131.25 8,-131.25"/>
<polygon fill="none" stroke="black" points="8,-131.25 8,-157.5 129.5,-157.5 129.5,-131.25 8,-131.25"/>
<text text-anchor="start" x="61.25" y="-140.1" font-family="Courier,monospace" font-size="12.00" fill="#004261">^6</text>
</g>
<!-- 4413695760&#45;&gt;4424963664 -->
<g id="edge2" class="edge">
<title>4413695760&#45;&gt;4424963664</title>
<path fill="none" stroke="black" d="M69.11,-218.39C69.17,-226.51 69.24,-235.07 69.31,-243.47"/>
<polygon fill="black" stroke="black" points="65.8,-243.27 69.38,-253.24 72.8,-243.22 65.8,-243.27"/>
</g>
<!-- 4424960912 -->
<g id="node4" class="node">
<title>4424960912</title>
<polygon fill="none" stroke="black" points="8.38,-58.75 8.38,-87.25 129.12,-87.25 129.12,-58.75 8.38,-58.75"/>
<text text-anchor="start" x="25.25" y="-67.95" font-family="Times,serif" font-size="14.00">value = &#45;6.5000</text>
<polygon fill="none" stroke="black" points="8.38,-30.25 8.38,-58.75 129.12,-58.75 129.12,-30.25 8.38,-30.25"/>
<text text-anchor="start" x="14.38" y="-39.45" font-family="Times,serif" font-size="14.00">grad = &#45;69617.4375</text>
<polygon fill="#c9c9c9" stroke="none" points="8.38,-4 8.38,-30.25 129.12,-30.25 129.12,-4 8.38,-4"/>
<polygon fill="none" stroke="black" points="8.38,-4 8.38,-30.25 129.12,-30.25 129.12,-4 8.38,-4"/>
<text text-anchor="start" x="50" y="-12.85" font-family="Courier,monospace" font-size="12.00">input</text>
</g>
<!-- 4424960912&#45;&gt;4413695760 -->
<g id="edge3" class="edge">
<title>4424960912&#45;&gt;4413695760</title>
<path fill="none" stroke="black" d="M68.75,-91.14C68.75,-99.26 68.75,-107.82 68.75,-116.22"/>
<polygon fill="black" stroke="black" points="65.25,-115.99 68.75,-125.99 72.25,-115.99 65.25,-115.99"/>
</g>
<!-- 4424960592 -->
<g id="node5" class="node">
<title>4424960592</title>
<polygon fill="none" stroke="black" points="164.5,-313.25 164.5,-341.75 259,-341.75 259,-313.25 164.5,-313.25"/>
<text text-anchor="start" x="170.5" y="-322.45" font-family="Times,serif" font-size="14.00">value = 5.0000</text>
<polygon fill="none" stroke="black" points="164.5,-284.75 164.5,-313.25 259,-313.25 259,-284.75 164.5,-284.75"/>
<text text-anchor="start" x="173.12" y="-293.95" font-family="Times,serif" font-size="14.00">grad = 1.0000</text>
<polygon fill="#c2ebff" stroke="none" points="164.5,-258.5 164.5,-284.75 259,-284.75 259,-258.5 164.5,-258.5"/>
<polygon fill="none" stroke="black" points="164.5,-258.5 164.5,-284.75 259,-284.75 259,-258.5 164.5,-258.5"/>
<text text-anchor="start" x="208" y="-267.35" font-family="Courier,monospace" font-size="12.00" fill="#004261">*</text>
</g>
<!-- 4424960592&#45;&gt;4424959440 -->
<g id="edge4" class="edge">
<title>4424960592&#45;&gt;4424959440</title>
<path fill="none" stroke="black" d="M186.52,-345.64C181.65,-354.22 176.51,-363.3 171.49,-372.15"/>
<polygon fill="black" stroke="black" points="168.53,-370.26 166.65,-380.69 174.62,-373.72 168.53,-370.26"/>
</g>
<!-- 4419478096 -->
<g id="node6" class="node">
<title>4419478096</title>
<polygon fill="none" stroke="black" points="163.75,-186 163.75,-214.5 259.75,-214.5 259.75,-186 163.75,-186"/>
<text text-anchor="start" x="170.5" y="-195.2" font-family="Times,serif" font-size="14.00">value = 0.5000</text>
<polygon fill="none" stroke="black" points="163.75,-157.5 163.75,-186 259.75,-186 259.75,-157.5 163.75,-157.5"/>
<text text-anchor="start" x="169.75" y="-166.7" font-family="Times,serif" font-size="14.00">grad = 10.0000</text>
<polygon fill="#c9c9c9" stroke="none" points="163.75,-131.25 163.75,-157.5 259.75,-157.5 259.75,-131.25 163.75,-131.25"/>
<polygon fill="none" stroke="black" points="163.75,-131.25 163.75,-157.5 259.75,-157.5 259.75,-131.25 163.75,-131.25"/>
<text text-anchor="start" x="193" y="-140.1" font-family="Courier,monospace" font-size="12.00">input</text>
</g>
<!-- 4419478096&#45;&gt;4424960592 -->
<g id="edge5" class="edge">
<title>4419478096&#45;&gt;4424960592</title>
<path fill="none" stroke="black" d="M211.75,-218.39C211.75,-226.51 211.75,-235.07 211.75,-243.47"/>
<polygon fill="black" stroke="black" points="208.25,-243.24 211.75,-253.24 215.25,-243.24 208.25,-243.24"/>
</g>
<!-- 4424958160 -->
<g id="node7" class="node">
<title>4424958160</title>
<polygon fill="none" stroke="black" points="294.12,-186 294.12,-214.5 395.38,-214.5 395.38,-186 294.12,-186"/>
<text text-anchor="start" x="300.12" y="-195.2" font-family="Times,serif" font-size="14.00">value = 10.0000</text>
<polygon fill="none" stroke="black" points="294.12,-157.5 294.12,-186 395.38,-186 395.38,-157.5 294.12,-157.5"/>
<text text-anchor="start" x="306.12" y="-166.7" font-family="Times,serif" font-size="14.00">grad = 0.5000</text>
<polygon fill="#c2ebff" stroke="none" points="294.12,-131.25 294.12,-157.5 395.38,-157.5 395.38,-131.25 294.12,-131.25"/>
<polygon fill="none" stroke="black" points="294.12,-131.25 294.12,-157.5 395.38,-157.5 395.38,-131.25 294.12,-131.25"/>
<text text-anchor="start" x="341" y="-140.1" font-family="Courier,monospace" font-size="12.00" fill="#004261">*</text>
</g>
<!-- 4424958160&#45;&gt;4424960592 -->
<g id="edge6" class="edge">
<title>4424958160&#45;&gt;4424960592</title>
<path fill="none" stroke="black" d="M297.48,-218.39C287.69,-227.61 277.28,-237.42 267.21,-246.89"/>
<polygon fill="black" stroke="black" points="264.85,-244.32 259.96,-253.72 269.64,-249.41 264.85,-244.32"/>
</g>
<!-- 4424959696 -->
<g id="node8" class="node">
<title>4424959696</title>
<polygon fill="none" stroke="black" points="232.5,-58.75 232.5,-87.25 327,-87.25 327,-58.75 232.5,-58.75"/>
<text text-anchor="start" x="238.5" y="-67.95" font-family="Times,serif" font-size="14.00">value = 2.0000</text>
<polygon fill="none" stroke="black" points="232.5,-30.25 232.5,-58.75 327,-58.75 327,-30.25 232.5,-30.25"/>
<text text-anchor="start" x="241.12" y="-39.45" font-family="Times,serif" font-size="14.00">grad = 2.5000</text>
<polygon fill="#c9c9c9" stroke="none" points="232.5,-4 232.5,-30.25 327,-30.25 327,-4 232.5,-4"/>
<polygon fill="none" stroke="black" points="232.5,-4 232.5,-30.25 327,-30.25 327,-4 232.5,-4"/>
<text text-anchor="start" x="261" y="-12.85" font-family="Courier,monospace" font-size="12.00">input</text>
</g>
<!-- 4424959696&#45;&gt;4424958160 -->
<g id="edge7" class="edge">
<title>4424959696&#45;&gt;4424958160</title>
<path fill="none" stroke="black" d="M302.85,-91.14C307.26,-99.63 311.91,-108.6 316.46,-117.36"/>
<polygon fill="black" stroke="black" points="313.31,-118.9 321.03,-126.16 319.53,-115.68 313.31,-118.9"/>
</g>
<!-- 4424817360 -->
<g id="node9" class="node">
<title>4424817360</title>
<polygon fill="none" stroke="black" points="361.5,-58.75 361.5,-87.25 456,-87.25 456,-58.75 361.5,-58.75"/>
<text text-anchor="start" x="367.5" y="-67.95" font-family="Times,serif" font-size="14.00">value = 5.0000</text>
<polygon fill="none" stroke="black" points="361.5,-30.25 361.5,-58.75 456,-58.75 456,-30.25 361.5,-30.25"/>
<text text-anchor="start" x="370.12" y="-39.45" font-family="Times,serif" font-size="14.00">grad = 1.0000</text>
<polygon fill="#c9c9c9" stroke="none" points="361.5,-4 361.5,-30.25 456,-30.25 456,-4 361.5,-4"/>
<polygon fill="none" stroke="black" points="361.5,-4 361.5,-30.25 456,-30.25 456,-4 361.5,-4"/>
<text text-anchor="start" x="390" y="-12.85" font-family="Courier,monospace" font-size="12.00">input</text>
</g>
<!-- 4424817360&#45;&gt;4424958160 -->
<g id="edge8" class="edge">
<title>4424817360&#45;&gt;4424958160</title>
<path fill="none" stroke="black" d="M386.01,-91.14C381.67,-99.63 377.08,-108.6 372.6,-117.36"/>
<polygon fill="black" stroke="black" points="369.54,-115.66 368.11,-126.16 375.78,-118.85 369.54,-115.66"/>
</g>
</g>
</svg>
